<?xml version="1.0" encoding="utf-8"?>
<!-- Generator: Adobe Illustrator 23.0.0, SVG Export Plug-In . SVG Version: 6.00 Build 0)  -->
<svg version="1.1" id="Layer_1" xmlns="http://www.w3.org/2000/svg" xmlns:xlink="http://www.w3.org/1999/xlink" x="0px" y="0px"
	 viewBox="0 0 1000 1000" style="enable-background:new 0 0 1000 1000;" xml:space="preserve">
<style type="text/css">
	.st0{fill:url(#SVGID_1_);}
	.st1{fill:url(#SVGID_2_);}
	.st2{fill:url(#SVGID_3_);}
	.st3{fill:url(#SVGID_4_);}
	.st4{fill:url(#SVGID_5_);}
	.st5{fill:url(#SVGID_6_);}
	.st6{fill:url(#SVGID_7_);}
	.st7{fill:url(#SVGID_8_);}
	.st8{fill:url(#SVGID_9_);}
	.st9{fill:url(#SVGID_10_);}
	.st10{fill:url(#SVGID_11_);}
	.st11{fill:url(#SVGID_12_);}
	.st12{fill:url(#SVGID_13_);}
	.st13{fill:url(#SVGID_14_);}
	.st14{fill:url(#SVGID_15_);}
	.st15{fill:url(#SVGID_16_);}
	.st16{fill:url(#SVGID_17_);}
	.st17{fill:url(#SVGID_18_);}
	.st18{fill:url(#SVGID_19_);}
	.st19{fill:url(#SVGID_20_);}
	.st20{fill:url(#SVGID_21_);}
	.st21{fill:url(#SVGID_22_);}
	.st22{fill:#FFFFFF;}
</style>
<g>
	<g>
		<linearGradient id="SVGID_1_" gradientUnits="userSpaceOnUse" x1="254.8168" y1="38.0274" x2="85.8661" y2="238.3158">
			<stop  offset="0" style="stop-color:#02214F"/>
			<stop  offset="1" style="stop-color:#00B9F2"/>
		</linearGradient>
		<path class="st0" d="M160.68,101.09l7.64,18.38c1.72,4.13,5.89,6.68,10.35,6.32l19.84-1.58c9.96-0.8,15.12,11.62,7.53,18.12
			l-15.12,12.94c-3.4,2.91-4.53,7.67-2.82,11.8l7.64,18.38c3.84,9.23-6.38,17.97-14.91,12.76l-16.98-10.38
			c-3.81-2.33-8.69-1.94-12.09,0.97l-15.12,12.94c-7.59,6.5-19.07-0.51-16.74-10.23l4.62-19.36c1.04-4.35-0.84-8.87-4.65-11.2
			l-16.98-10.38c-8.53-5.21-5.4-18.29,4.56-19.09l19.84-1.59c4.46-0.36,8.17-3.54,9.21-7.89l4.62-19.36
			C143.44,92.93,156.84,91.86,160.68,101.09z"/>
	</g>
	<g>
		<linearGradient id="SVGID_2_" gradientUnits="userSpaceOnUse" x1="144.4456" y1="248.7405" x2="166.2457" y2="85.2397">
			<stop  offset="0" style="stop-color:#5E004C"/>
			<stop  offset="1" style="stop-color:#D80582"/>
		</linearGradient>
		<path class="st1" d="M198.02,104.01l-6.98,27.5c-1.25,4.94,0.82,10.12,5.12,12.83l24,15.13c9.63,6.07,5.86,20.92-5.5,21.67
			L186.35,183c-5.08,0.33-9.37,3.9-10.62,8.84l-6.98,27.5c-2.8,11.04-18.09,12.04-22.31,1.47l-10.52-26.35
			c-1.89-4.73-6.61-7.71-11.69-7.37l-28.31,1.86c-11.36,0.75-17.04-13.48-8.29-20.77l21.81-18.14c3.91-3.26,5.29-8.66,3.4-13.39
			l-10.52-26.35c-4.22-10.58,7.56-20.38,17.19-14.3l24,15.13c4.31,2.72,9.87,2.35,13.79-0.91l21.81-18.14
			C187.86,84.8,200.82,92.97,198.02,104.01z"/>
	</g>
	<g>
		<linearGradient id="SVGID_3_" gradientUnits="userSpaceOnUse" x1="227.5715" y1="-5.0748" x2="57.2582" y2="186.3573">
			<stop  offset="0" style="stop-color:#02214F"/>
			<stop  offset="1" style="stop-color:#00B9F2"/>
		</linearGradient>
		<circle class="st2" cx="152.91" cy="78.84" r="10.24"/>
	</g>
	<g>
		<linearGradient id="SVGID_4_" gradientUnits="userSpaceOnUse" x1="290.1737" y1="54.3924" x2="119.8604" y2="245.8245">
			<stop  offset="0" style="stop-color:#02214F"/>
			<stop  offset="1" style="stop-color:#00B9F2"/>
		</linearGradient>
		<circle class="st3" cx="225.68" cy="126.88" r="10.24"/>
	</g>
	<g>
		<linearGradient id="SVGID_5_" gradientUnits="userSpaceOnUse" x1="270.7303" y1="35.2084" x2="100.4171" y2="226.6405">
			<stop  offset="0" style="stop-color:#02214F"/>
			<stop  offset="1" style="stop-color:#00B9F2"/>
		</linearGradient>
		<circle class="st4" cx="111.23" cy="214.49" r="10.24"/>
	</g>
	<g>
		<linearGradient id="SVGID_6_" gradientUnits="userSpaceOnUse" x1="319.7743" y1="79.0756" x2="149.461" y2="270.5077">
			<stop  offset="0" style="stop-color:#02214F"/>
			<stop  offset="1" style="stop-color:#00B9F2"/>
		</linearGradient>
		<circle class="st5" cx="203.07" cy="210.25" r="10.24"/>
	</g>
	<g>
		<linearGradient id="SVGID_7_" gradientUnits="userSpaceOnUse" x1="213.3658" y1="-18.181" x2="43.0525" y2="173.2512">
			<stop  offset="0" style="stop-color:#02214F"/>
			<stop  offset="1" style="stop-color:#00B9F2"/>
		</linearGradient>
		<circle class="st6" cx="83.68" cy="127.59" r="10.24"/>
	</g>
	<g>
		<linearGradient id="SVGID_8_" gradientUnits="userSpaceOnUse" x1="45.2576" y1="296.1527" x2="208.7583" y2="67.9329">
			<stop  offset="0" style="stop-color:#5E004C"/>
			<stop  offset="1" style="stop-color:#D80582"/>
		</linearGradient>
		<circle class="st7" cx="204.49" cy="73.9" r="15.9"/>
	</g>
	<g>
		<linearGradient id="SVGID_9_" gradientUnits="userSpaceOnUse" x1="97.86" y1="333.838" x2="261.3607" y2="105.6182">
			<stop  offset="0" style="stop-color:#5E004C"/>
			<stop  offset="1" style="stop-color:#D80582"/>
		</linearGradient>
		<circle class="st8" cx="158.56" cy="249.1" r="15.9"/>
	</g>
	<g>
		<linearGradient id="SVGID_10_" gradientUnits="userSpaceOnUse" x1="120.9663" y1="350.3918" x2="284.467" y2="122.172">
			<stop  offset="0" style="stop-color:#5E004C"/>
			<stop  offset="1" style="stop-color:#D80582"/>
		</linearGradient>
		<circle class="st9" cx="246.17" cy="175.63" r="15.9"/>
	</g>
	<g>
		<linearGradient id="SVGID_11_" gradientUnits="userSpaceOnUse" x1="-25.6988" y1="245.3183" x2="137.8019" y2="17.0985">
			<stop  offset="0" style="stop-color:#5E004C"/>
			<stop  offset="1" style="stop-color:#D80582"/>
		</linearGradient>
		<circle class="st10" cx="93.57" cy="78.84" r="15.9"/>
	</g>
	<g>
		<linearGradient id="SVGID_12_" gradientUnits="userSpaceOnUse" x1="5.8668" y1="267.9324" x2="169.3675" y2="39.7127">
			<stop  offset="0" style="stop-color:#5E004C"/>
			<stop  offset="1" style="stop-color:#D80582"/>
		</linearGradient>
		<circle class="st11" cx="63.9" cy="186.93" r="15.9"/>
	</g>
</g>
<g>
	<g>
		<linearGradient id="SVGID_13_" gradientUnits="userSpaceOnUse" x1="245.8117" y1="160.7933" x2="818.5975" y2="102.9362">
			<stop  offset="0" style="stop-color:#5E004C"/>
			<stop  offset="1" style="stop-color:#D80582"/>
		</linearGradient>
		<path class="st12" d="M280.12,116.55h22.1v79.33h-22.1V116.55z"/>
	</g>
	<g>
		<linearGradient id="SVGID_14_" gradientUnits="userSpaceOnUse" x1="246.1397" y1="164.0398" x2="818.9254" y2="106.1827">
			<stop  offset="0" style="stop-color:#5E004C"/>
			<stop  offset="1" style="stop-color:#D80582"/>
		</linearGradient>
		<path class="st13" d="M312.65,116.55h34c20.06,0,32.98,10.31,32.98,27.88v0.23c0,18.7-14.39,28.56-34.11,28.56h-10.88v22.67
			h-21.99V116.55z M345.06,155.98c7.82,0,12.58-4.08,12.58-10.31v-0.23c0-6.8-4.76-10.43-12.69-10.43h-10.31v20.97H345.06z"/>
	</g>
	<g>
		<linearGradient id="SVGID_15_" gradientUnits="userSpaceOnUse" x1="247.2039" y1="174.5755" x2="819.9896" y2="116.7184">
			<stop  offset="0" style="stop-color:#5E004C"/>
			<stop  offset="1" style="stop-color:#D80582"/>
		</linearGradient>
		<path class="st14" d="M404.33,115.98h21.19l33.77,79.9h-23.57l-5.78-14.17h-30.6l-5.67,14.17h-23.12L404.33,115.98z M423.6,164.6
			l-8.84-22.55l-8.95,22.55H423.6z"/>
	</g>
	<g>
		<linearGradient id="SVGID_16_" gradientUnits="userSpaceOnUse" x1="247.6111" y1="178.6069" x2="820.3968" y2="120.7497">
			<stop  offset="0" style="stop-color:#5E004C"/>
			<stop  offset="1" style="stop-color:#D80582"/>
		</linearGradient>
		<path class="st15" d="M473.35,166.18l-30.15-49.64h25.05l16.32,28.9l16.43-28.9h24.59l-30.14,49.3v30.03h-22.1V166.18z"/>
	</g>
	<g>
		<linearGradient id="SVGID_17_" gradientUnits="userSpaceOnUse" x1="248.6326" y1="188.7203" x2="821.4183" y2="130.8631">
			<stop  offset="0" style="stop-color:#5E004C"/>
			<stop  offset="1" style="stop-color:#D80582"/>
		</linearGradient>
		<path class="st16" d="M528.31,116.55h23.23l18.92,30.71l18.93-30.71h23.23v79.33h-21.87v-45.56l-20.29,31.05h-0.45l-20.17-30.83
			v45.33h-21.53V116.55z"/>
	</g>
	<g>
		<linearGradient id="SVGID_18_" gradientUnits="userSpaceOnUse" x1="249.6854" y1="199.1428" x2="822.4711" y2="141.2856">
			<stop  offset="0" style="stop-color:#5E004C"/>
			<stop  offset="1" style="stop-color:#D80582"/>
		</linearGradient>
		<path class="st17" d="M650.03,115.98h21.19l33.77,79.9h-23.57l-5.78-14.17h-30.6l-5.67,14.17h-23.12L650.03,115.98z M669.29,164.6
			l-8.84-22.55l-8.95,22.55H669.29z"/>
	</g>
	<g>
		<linearGradient id="SVGID_19_" gradientUnits="userSpaceOnUse" x1="250.1115" y1="203.3609" x2="822.8972" y2="145.5037">
			<stop  offset="0" style="stop-color:#5E004C"/>
			<stop  offset="1" style="stop-color:#D80582"/>
		</linearGradient>
		<path class="st18" d="M717.8,135.81H694v-19.27h69.58v19.27h-23.8v60.06H717.8V135.81z"/>
	</g>
	<g>
		<linearGradient id="SVGID_20_" gradientUnits="userSpaceOnUse" x1="250.7553" y1="209.7348" x2="823.541" y2="151.8777">
			<stop  offset="0" style="stop-color:#5E004C"/>
			<stop  offset="1" style="stop-color:#D80582"/>
		</linearGradient>
		<path class="st19" d="M769.59,116.55h22.1v79.33h-22.1V116.55z"/>
	</g>
	<g>
		<linearGradient id="SVGID_21_" gradientUnits="userSpaceOnUse" x1="251.3651" y1="215.7715" x2="824.1508" y2="157.9143">
			<stop  offset="0" style="stop-color:#5E004C"/>
			<stop  offset="1" style="stop-color:#D80582"/>
		</linearGradient>
		<path class="st20" d="M799.39,156.44v-0.23c0-23.12,17.79-41.25,41.82-41.25c16.21,0,26.63,6.8,33.66,16.55l-16.55,12.81
			c-4.53-5.67-9.75-9.29-17.34-9.29c-11.11,0-18.93,9.41-18.93,20.97v0.23c0,11.9,7.82,21.19,18.93,21.19
			c8.27,0,13.15-3.85,17.91-9.63l16.55,11.79c-7.48,10.31-17.57,17.91-35.13,17.91C817.64,197.46,799.39,180.12,799.39,156.44z"/>
	</g>
	<g>
		<linearGradient id="SVGID_22_" gradientUnits="userSpaceOnUse" x1="252.0692" y1="222.742" x2="824.8549" y2="164.8848">
			<stop  offset="0" style="stop-color:#5E004C"/>
			<stop  offset="1" style="stop-color:#D80582"/>
		</linearGradient>
		<path class="st21" d="M874.76,184.09L887,169.47c7.82,6.23,16.55,9.52,25.73,9.52c5.89,0,9.07-2.04,9.07-5.44v-0.23
			c0-3.29-2.61-5.1-13.37-7.59c-16.89-3.85-29.92-8.61-29.92-24.93v-0.23c0-14.73,11.67-25.39,30.71-25.39
			c13.49,0,24.03,3.63,32.64,10.54l-10.99,15.53c-7.25-5.1-15.19-7.82-22.21-7.82c-5.33,0-7.93,2.27-7.93,5.1v0.23
			c0,3.63,2.72,5.21,13.71,7.71c18.25,3.97,29.58,9.86,29.58,24.71v0.23c0,16.21-12.81,25.84-32.07,25.84
			C897.88,197.24,884.5,192.82,874.76,184.09z"/>
	</g>
</g>
<g>
	<path d="M292.62,216.46v7.69h-4.24v-7.6l-7.41-11.68h4.96l4.6,7.74l4.68-7.74h4.82L292.62,216.46z"/>
	<path d="M327.06,218.37c-0.51,1.2-1.23,2.26-2.13,3.17c-0.91,0.91-1.99,1.63-3.25,2.15c-1.26,0.52-2.63,0.78-4.12,0.78
		s-2.86-0.26-4.1-0.78c-1.25-0.52-2.33-1.23-3.24-2.12s-1.62-1.94-2.12-3.14c-0.51-1.2-0.76-2.49-0.76-3.87v-0.05
		c0-1.38,0.26-2.67,0.77-3.87s1.23-2.26,2.13-3.17c0.91-0.91,1.99-1.63,3.25-2.15s2.63-0.79,4.12-0.79c1.49,0,2.85,0.26,4.1,0.79
		c1.25,0.52,2.33,1.23,3.24,2.12c0.91,0.89,1.62,1.94,2.12,3.14c0.5,1.2,0.76,2.49,0.76,3.87v0.06
		C327.83,215.88,327.57,217.17,327.06,218.37z M323.39,214.5c0-0.83-0.14-1.61-0.43-2.34c-0.29-0.73-0.69-1.38-1.21-1.93
		s-1.14-0.99-1.86-1.31s-1.5-0.48-2.34-0.48c-0.86,0-1.65,0.16-2.35,0.47c-0.71,0.31-1.31,0.74-1.82,1.29s-0.9,1.19-1.18,1.91
		c-0.29,0.73-0.43,1.5-0.43,2.33v0.06c0,0.83,0.14,1.61,0.43,2.34c0.28,0.74,0.69,1.38,1.21,1.93s1.14,0.99,1.85,1.31
		s1.49,0.48,2.36,0.48c0.84,0,1.63-0.16,2.34-0.47c0.72-0.31,1.33-0.74,1.83-1.29c0.5-0.55,0.9-1.19,1.18-1.91
		c0.28-0.73,0.43-1.5,0.43-2.33V214.5z"/>
	<path d="M353.02,219.57c-0.4,1.08-0.96,1.99-1.69,2.71s-1.63,1.27-2.67,1.63c-1.05,0.36-2.21,0.54-3.5,0.54
		c-2.59,0-4.63-0.72-6.11-2.15c-1.49-1.43-2.23-3.57-2.23-6.42v-11.02h4.24v10.91c0,1.58,0.37,2.77,1.1,3.57
		c0.73,0.8,1.75,1.2,3.06,1.2c1.3,0,2.32-0.39,3.06-1.16c0.73-0.77,1.1-1.93,1.1-3.47v-11.04h4.24v10.88
		C353.61,217.21,353.41,218.49,353.02,219.57z"/>
	<path d="M375.15,224.14l-4.13-6.17h-3.33v6.17h-4.24v-19.28h8.81c2.29,0,4.08,0.56,5.36,1.68c1.28,1.12,1.91,2.68,1.91,4.68v0.06
		c0,1.56-0.38,2.83-1.14,3.81c-0.76,0.98-1.76,1.7-2.99,2.16l4.71,6.89H375.15z M375.23,211.45c0-0.92-0.29-1.61-0.88-2.07
		c-0.59-0.46-1.4-0.69-2.45-0.69h-4.21v5.54h4.3c1.05,0,1.85-0.25,2.41-0.74c0.56-0.5,0.84-1.16,0.84-1.98V211.45z"/>
	<path d="M416.16,224.14l-9.34-12.26v12.26h-4.19v-19.28h3.91l9.03,11.87v-11.87h4.19v19.28H416.16z"/>
	<path d="M429.91,224.14v-19.28h14.52v3.77h-10.33v3.91h9.09v3.77h-9.09v4.05h10.47v3.77H429.91z"/>
	<path d="M475.05,224.28h-3.69l-4.35-12.62l-4.35,12.62h-3.69l-6.58-19.42h4.54l3.99,13.06l4.32-13.11h3.64l4.32,13.11l3.99-13.06
		h4.43L475.05,224.28z"/>
	<path d="M518.04,223.58c-1.37,0.6-2.93,0.89-4.7,0.89c-1.51,0-2.88-0.25-4.12-0.74s-2.3-1.18-3.2-2.07
		c-0.89-0.88-1.58-1.93-2.08-3.14c-0.5-1.21-0.74-2.53-0.74-3.97v-0.05c0-1.38,0.25-2.67,0.76-3.87c0.5-1.2,1.21-2.26,2.11-3.17
		s1.96-1.63,3.2-2.15s2.58-0.79,4.05-0.79c0.86,0,1.65,0.06,2.35,0.18c0.71,0.12,1.36,0.29,1.97,0.51c0.61,0.22,1.17,0.5,1.71,0.83
		c0.53,0.33,1.05,0.71,1.54,1.13l-2.67,3.22c-0.37-0.31-0.73-0.59-1.1-0.83c-0.37-0.24-0.75-0.44-1.14-0.61
		c-0.39-0.17-0.82-0.29-1.28-0.38s-0.96-0.14-1.51-0.14c-0.77,0-1.49,0.16-2.16,0.48c-0.67,0.32-1.26,0.75-1.76,1.3
		s-0.9,1.18-1.18,1.91c-0.28,0.73-0.43,1.5-0.43,2.33v0.05c0,0.88,0.14,1.7,0.43,2.44c0.29,0.75,0.69,1.39,1.21,1.95
		s1.14,0.98,1.85,1.28c0.71,0.3,1.49,0.46,2.36,0.46c1.58,0,2.91-0.39,3.99-1.17v-2.77h-4.27v-3.66h8.37v8.37
		C520.59,222.26,519.41,222.98,518.04,223.58z"/>
	<path d="M545.51,224.14l-1.76-4.32h-8.15l-1.76,4.32h-4.32l8.26-19.42h3.91l8.26,19.42H545.51z M539.67,209.82l-2.56,6.25h5.12
		L539.67,209.82z"/>
	<path d="M567.17,208.77v15.37h-4.24v-15.37h-5.87v-3.91h15.98v3.91H567.17z"/>
	<path d="M581.79,224.14v-19.28h14.52v3.77h-10.33v3.91h9.09v3.77h-9.09v4.05h10.47v3.77H581.79z"/>
	<path d="M626.94,224.28h-3.69l-4.35-12.62l-4.35,12.62h-3.69l-6.58-19.42h4.54l3.99,13.06l4.32-13.11h3.64l4.32,13.11l3.99-13.06
		h4.43L626.94,224.28z"/>
	<path d="M656.52,224.14l-1.76-4.32h-8.15l-1.76,4.32h-4.32l8.26-19.42h3.91l8.26,19.42H656.52z M650.68,209.82l-2.56,6.25h5.12
		L650.68,209.82z"/>
	<path d="M679.11,216.46v7.69h-4.24v-7.6l-7.41-11.68h4.96l4.6,7.74l4.68-7.74h4.82L679.11,216.46z"/>
	<path d="M712.68,208.69v4.16h9.2v3.83h-9.2v7.46h-4.24v-19.28h14.68v3.83H712.68z"/>
	<path d="M750.89,218.37c-0.51,1.2-1.23,2.26-2.13,3.17c-0.91,0.91-1.99,1.63-3.25,2.15s-2.63,0.78-4.12,0.78
		c-1.49,0-2.86-0.26-4.1-0.78c-1.25-0.52-2.33-1.23-3.24-2.12c-0.91-0.89-1.62-1.94-2.12-3.14c-0.51-1.2-0.76-2.49-0.76-3.87v-0.05
		c0-1.38,0.26-2.67,0.77-3.87c0.51-1.2,1.23-2.26,2.13-3.17c0.91-0.91,1.99-1.63,3.25-2.15s2.63-0.79,4.12-0.79s2.86,0.26,4.1,0.79
		c1.25,0.52,2.33,1.23,3.24,2.12s1.62,1.94,2.12,3.14c0.5,1.2,0.76,2.49,0.76,3.87v0.06C751.66,215.88,751.4,217.17,750.89,218.37z
		 M747.23,214.5c0-0.83-0.14-1.61-0.43-2.34c-0.29-0.73-0.69-1.38-1.21-1.93s-1.14-0.99-1.86-1.31s-1.5-0.48-2.34-0.48
		c-0.86,0-1.65,0.16-2.35,0.47c-0.71,0.31-1.31,0.74-1.82,1.29s-0.9,1.19-1.18,1.91c-0.28,0.73-0.43,1.5-0.43,2.33v0.06
		c0,0.83,0.14,1.61,0.43,2.34c0.29,0.74,0.69,1.38,1.21,1.93s1.14,0.99,1.85,1.31s1.49,0.48,2.36,0.48c0.84,0,1.63-0.16,2.34-0.47
		c0.72-0.31,1.33-0.74,1.83-1.29s0.9-1.19,1.18-1.91c0.28-0.73,0.43-1.5,0.43-2.33V214.5z"/>
	<path d="M772.65,224.14l-4.13-6.17h-3.33v6.17h-4.24v-19.28h8.81c2.3,0,4.08,0.56,5.36,1.68s1.92,2.68,1.92,4.68v0.06
		c0,1.56-0.38,2.83-1.14,3.81c-0.76,0.98-1.76,1.7-2.99,2.16l4.71,6.89H772.65z M772.73,211.45c0-0.92-0.29-1.61-0.88-2.07
		c-0.59-0.46-1.41-0.69-2.45-0.69h-4.21v5.54h4.3c1.05,0,1.85-0.25,2.41-0.74s0.84-1.16,0.84-1.98V211.45z"/>
	<path d="M800.33,224.14v-19.28h4.24v19.28H800.33z"/>
	<path d="M828.43,224.14l-9.34-12.26v12.26h-4.19v-19.28h3.91l9.03,11.87v-11.87h4.19v19.28H828.43z"/>
	<path d="M857.57,222.46c-0.53,0.42-1.12,0.79-1.75,1.09c-0.63,0.3-1.33,0.53-2.08,0.69c-0.75,0.16-1.6,0.23-2.53,0.23
		c-1.41,0-2.73-0.26-3.94-0.77c-1.21-0.51-2.26-1.22-3.14-2.11s-1.57-1.94-2.07-3.15c-0.5-1.21-0.74-2.51-0.74-3.88v-0.05
		c0-1.38,0.25-2.67,0.74-3.87c0.5-1.2,1.18-2.26,2.07-3.17s1.94-1.63,3.17-2.15c1.23-0.52,2.59-0.79,4.08-0.79
		c0.9,0,1.72,0.07,2.47,0.22c0.74,0.15,1.42,0.35,2.02,0.61c0.61,0.26,1.17,0.57,1.68,0.94c0.51,0.37,0.99,0.77,1.43,1.21l-2.7,3.11
		c-0.75-0.68-1.52-1.21-2.3-1.6c-0.78-0.39-1.66-0.58-2.63-0.58c-0.81,0-1.56,0.16-2.25,0.47s-1.28,0.74-1.78,1.29
		s-0.88,1.19-1.16,1.91s-0.41,1.5-0.41,2.33v0.06c0,0.83,0.14,1.61,0.41,2.34c0.28,0.74,0.66,1.38,1.14,1.93
		c0.49,0.55,1.07,0.99,1.76,1.31s1.45,0.48,2.27,0.48c1.1,0,2.03-0.2,2.8-0.61c0.76-0.4,1.52-0.96,2.27-1.65l2.7,2.73
		C858.62,221.56,858.1,222.04,857.57,222.46z"/>
	<path d="M886.88,218.37c-0.51,1.2-1.23,2.26-2.13,3.17c-0.91,0.91-1.99,1.63-3.25,2.15s-2.63,0.78-4.12,0.78
		c-1.49,0-2.86-0.26-4.1-0.78c-1.25-0.52-2.33-1.23-3.24-2.12c-0.91-0.89-1.62-1.94-2.12-3.14c-0.51-1.2-0.76-2.49-0.76-3.87v-0.05
		c0-1.38,0.26-2.67,0.77-3.87c0.51-1.2,1.23-2.26,2.13-3.17c0.91-0.91,1.99-1.63,3.25-2.15s2.63-0.79,4.12-0.79s2.86,0.26,4.1,0.79
		c1.25,0.52,2.33,1.23,3.24,2.12s1.62,1.94,2.12,3.14c0.5,1.2,0.76,2.49,0.76,3.87v0.06C887.65,215.88,887.39,217.17,886.88,218.37z
		 M883.21,214.5c0-0.83-0.14-1.61-0.43-2.34c-0.29-0.73-0.69-1.38-1.21-1.93s-1.14-0.99-1.86-1.31s-1.5-0.48-2.34-0.48
		c-0.86,0-1.65,0.16-2.35,0.47c-0.71,0.31-1.31,0.74-1.82,1.29s-0.9,1.19-1.18,1.91c-0.28,0.73-0.43,1.5-0.43,2.33v0.06
		c0,0.83,0.14,1.61,0.43,2.34c0.29,0.74,0.69,1.38,1.21,1.93s1.14,0.99,1.85,1.31s1.49,0.48,2.36,0.48c0.84,0,1.63-0.16,2.34-0.47
		c0.72-0.31,1.33-0.74,1.83-1.29s0.9-1.19,1.18-1.91c0.28-0.73,0.43-1.5,0.43-2.33V214.5z"/>
	<path d="M912.03,224.14v-12.59l-5.43,8.24h-0.11l-5.37-8.15v12.51h-4.19v-19.28h4.57l5.07,8.15l5.07-8.15h4.57v19.28H912.03z"/>
	<path d="M926.35,224.14v-19.28h14.52v3.77h-10.33v3.91h9.09v3.77h-9.09v4.05H941v3.77H926.35z"/>
</g>
<rect y="303" width="1000" height="256"/>
<g>
	<g>
		<path class="st22" d="M160.68,371.09l7.64,18.38c1.72,4.13,5.89,6.68,10.35,6.32l19.84-1.58c9.96-0.8,15.12,11.62,7.53,18.12
			l-15.12,12.94c-3.4,2.91-4.53,7.67-2.82,11.8l7.64,18.38c3.84,9.23-6.38,17.97-14.91,12.76l-16.98-10.38
			c-3.81-2.33-8.69-1.94-12.09,0.97l-15.12,12.94c-7.59,6.5-19.07-0.51-16.74-10.23l4.62-19.36c1.04-4.35-0.84-8.87-4.65-11.2
			l-16.98-10.38c-8.53-5.21-5.4-18.29,4.56-19.09l19.84-1.58c4.46-0.36,8.17-3.54,9.21-7.89l4.62-19.36
			C143.44,362.93,156.84,361.86,160.68,371.09z"/>
	</g>
	<g>
		<path class="st22" d="M198.02,374.01l-6.98,27.5c-1.25,4.94,0.82,10.12,5.12,12.83l24,15.13c9.63,6.07,5.86,20.92-5.5,21.67
			L186.35,453c-5.08,0.33-9.37,3.9-10.62,8.84l-6.98,27.5c-2.8,11.04-18.09,12.04-22.31,1.47l-10.52-26.35
			c-1.89-4.73-6.61-7.71-11.69-7.37l-28.31,1.86c-11.36,0.75-17.04-13.48-8.29-20.77l21.81-18.14c3.91-3.26,5.29-8.66,3.4-13.39
			l-10.52-26.35c-4.22-10.58,7.56-20.38,17.19-14.3l24,15.13c4.31,2.72,9.87,2.35,13.79-0.91l21.81-18.14
			C187.86,354.8,200.82,362.97,198.02,374.01z"/>
	</g>
	<g>
		<circle class="st22" cx="152.91" cy="348.84" r="10.24"/>
	</g>
	<g>
		<circle class="st22" cx="225.68" cy="396.88" r="10.24"/>
	</g>
	<g>
		<circle class="st22" cx="111.23" cy="484.49" r="10.24"/>
	</g>
	<g>
		<circle class="st22" cx="203.07" cy="480.25" r="10.24"/>
	</g>
	<g>
		<circle class="st22" cx="83.68" cy="397.59" r="10.24"/>
	</g>
	<g>
		<circle class="st22" cx="204.49" cy="343.9" r="15.9"/>
	</g>
	<g>
		<circle class="st22" cx="158.56" cy="519.1" r="15.9"/>
	</g>
	<g>
		<circle class="st22" cx="246.17" cy="445.63" r="15.9"/>
	</g>
	<g>
		<circle class="st22" cx="93.57" cy="348.84" r="15.9"/>
	</g>
	<g>
		<circle class="st22" cx="63.9" cy="456.93" r="15.9"/>
	</g>
</g>
<g>
	<g>
		<path class="st22" d="M280.12,386.55h22.1v79.33h-22.1V386.55z"/>
	</g>
	<g>
		<path class="st22" d="M312.65,386.55h34c20.06,0,32.98,10.31,32.98,27.88v0.23c0,18.7-14.39,28.56-34.11,28.56h-10.88v22.67
			h-21.99V386.55z M345.06,425.98c7.82,0,12.58-4.08,12.58-10.31v-0.23c0-6.8-4.76-10.43-12.69-10.43h-10.31v20.97H345.06z"/>
	</g>
	<g>
		<path class="st22" d="M404.33,385.98h21.19l33.77,79.9h-23.57l-5.78-14.17h-30.6l-5.67,14.17h-23.12L404.33,385.98z M423.6,434.6
			l-8.84-22.55l-8.95,22.55H423.6z"/>
	</g>
	<g>
		<path class="st22" d="M473.35,436.18l-30.15-49.64h25.05l16.32,28.9l16.43-28.9h24.59l-30.14,49.3v30.03h-22.1V436.18z"/>
	</g>
	<g>
		<path class="st22" d="M528.31,386.55h23.23l18.92,30.71l18.93-30.71h23.23v79.33h-21.87v-45.56l-20.29,31.05h-0.45l-20.17-30.83
			v45.33h-21.53V386.55z"/>
	</g>
	<g>
		<path class="st22" d="M650.03,385.98h21.19l33.77,79.9h-23.57l-5.78-14.17h-30.6l-5.67,14.17h-23.12L650.03,385.98z M669.29,434.6
			l-8.84-22.55l-8.95,22.55H669.29z"/>
	</g>
	<g>
		<path class="st22" d="M717.8,405.81H694v-19.27h69.58v19.27h-23.8v60.06H717.8V405.81z"/>
	</g>
	<g>
		<path class="st22" d="M769.59,386.55h22.1v79.33h-22.1V386.55z"/>
	</g>
	<g>
		<path class="st22" d="M799.39,426.44v-0.23c0-23.12,17.79-41.25,41.82-41.25c16.21,0,26.63,6.8,33.66,16.55l-16.55,12.81
			c-4.53-5.67-9.75-9.29-17.34-9.29c-11.11,0-18.93,9.41-18.93,20.97v0.23c0,11.9,7.82,21.19,18.93,21.19
			c8.27,0,13.15-3.85,17.91-9.63l16.55,11.79c-7.48,10.31-17.57,17.91-35.13,17.91C817.64,467.46,799.39,450.12,799.39,426.44z"/>
	</g>
	<g>
		<path class="st22" d="M874.76,454.09L887,439.47c7.82,6.23,16.55,9.52,25.73,9.52c5.89,0,9.07-2.04,9.07-5.44v-0.23
			c0-3.29-2.61-5.1-13.37-7.59c-16.89-3.85-29.92-8.61-29.92-24.93v-0.23c0-14.73,11.67-25.39,30.71-25.39
			c13.49,0,24.03,3.63,32.64,10.54l-10.99,15.53c-7.25-5.1-15.19-7.82-22.21-7.82c-5.33,0-7.93,2.27-7.93,5.1v0.23
			c0,3.63,2.72,5.21,13.71,7.71c18.25,3.97,29.58,9.86,29.58,24.71v0.23c0,16.21-12.81,25.84-32.07,25.84
			C897.88,467.24,884.5,462.82,874.76,454.09z"/>
	</g>
</g>
<g>
	<path class="st22" d="M292.62,486.46v7.69h-4.24v-7.6l-7.41-11.68h4.96l4.6,7.74l4.68-7.74h4.82L292.62,486.46z"/>
	<path class="st22" d="M327.06,488.37c-0.51,1.2-1.23,2.26-2.13,3.17c-0.91,0.91-1.99,1.63-3.25,2.15
		c-1.26,0.52-2.63,0.78-4.12,0.78s-2.86-0.26-4.1-0.78c-1.25-0.52-2.33-1.23-3.24-2.12s-1.62-1.94-2.12-3.14
		c-0.51-1.2-0.76-2.49-0.76-3.87v-0.05c0-1.38,0.26-2.67,0.77-3.87s1.23-2.26,2.13-3.17c0.91-0.91,1.99-1.63,3.25-2.15
		s2.63-0.79,4.12-0.79c1.49,0,2.85,0.26,4.1,0.79c1.25,0.52,2.33,1.23,3.24,2.12c0.91,0.89,1.62,1.94,2.12,3.14
		c0.5,1.2,0.76,2.49,0.76,3.87v0.06C327.83,485.88,327.57,487.17,327.06,488.37z M323.39,484.5c0-0.83-0.14-1.61-0.43-2.34
		c-0.29-0.73-0.69-1.38-1.21-1.93s-1.14-0.99-1.86-1.31s-1.5-0.48-2.34-0.48c-0.86,0-1.65,0.16-2.35,0.47
		c-0.71,0.31-1.31,0.74-1.82,1.29s-0.9,1.19-1.18,1.91c-0.29,0.73-0.43,1.5-0.43,2.33v0.06c0,0.83,0.14,1.61,0.43,2.34
		c0.28,0.74,0.69,1.38,1.21,1.93s1.14,0.99,1.85,1.31s1.49,0.48,2.36,0.48c0.84,0,1.63-0.16,2.34-0.47
		c0.72-0.31,1.33-0.74,1.83-1.29c0.5-0.55,0.9-1.19,1.18-1.91c0.28-0.73,0.43-1.5,0.43-2.33V484.5z"/>
	<path class="st22" d="M353.02,489.57c-0.4,1.08-0.96,1.99-1.69,2.71s-1.63,1.27-2.67,1.63c-1.05,0.36-2.21,0.54-3.5,0.54
		c-2.59,0-4.63-0.72-6.11-2.15c-1.49-1.43-2.23-3.57-2.23-6.42v-11.02h4.24v10.91c0,1.58,0.37,2.77,1.1,3.57
		c0.73,0.8,1.75,1.2,3.06,1.2c1.3,0,2.32-0.39,3.06-1.16c0.73-0.77,1.1-1.93,1.1-3.47v-11.04h4.24v10.88
		C353.61,487.21,353.41,488.49,353.02,489.57z"/>
	<path class="st22" d="M375.15,494.14l-4.13-6.17h-3.33v6.17h-4.24v-19.28h8.81c2.29,0,4.08,0.56,5.36,1.68
		c1.28,1.12,1.91,2.68,1.91,4.68v0.06c0,1.56-0.38,2.83-1.14,3.81c-0.76,0.98-1.76,1.7-2.99,2.16l4.71,6.89H375.15z M375.23,481.45
		c0-0.92-0.29-1.61-0.88-2.07c-0.59-0.46-1.4-0.69-2.45-0.69h-4.21v5.54h4.3c1.05,0,1.85-0.25,2.41-0.74
		c0.56-0.5,0.84-1.16,0.84-1.98V481.45z"/>
	<path class="st22" d="M416.16,494.14l-9.34-12.26v12.26h-4.19v-19.28h3.91l9.03,11.87v-11.87h4.19v19.28H416.16z"/>
	<path class="st22" d="M429.91,494.14v-19.28h14.52v3.77h-10.33v3.91h9.09v3.77h-9.09v4.05h10.47v3.77H429.91z"/>
	<path class="st22" d="M475.05,494.28h-3.69l-4.35-12.62l-4.35,12.62h-3.69l-6.58-19.42h4.54l3.99,13.06l4.32-13.11h3.64l4.32,13.11
		l3.99-13.06h4.43L475.05,494.28z"/>
	<path class="st22" d="M518.04,493.58c-1.37,0.6-2.93,0.89-4.7,0.89c-1.51,0-2.88-0.25-4.12-0.74s-2.3-1.18-3.2-2.07
		c-0.89-0.88-1.58-1.93-2.08-3.14c-0.5-1.21-0.74-2.53-0.74-3.97v-0.05c0-1.38,0.25-2.67,0.76-3.87c0.5-1.2,1.21-2.26,2.11-3.17
		s1.96-1.63,3.2-2.15s2.58-0.79,4.05-0.79c0.86,0,1.65,0.06,2.35,0.18c0.71,0.12,1.36,0.29,1.97,0.51c0.61,0.22,1.17,0.5,1.71,0.83
		c0.53,0.33,1.05,0.71,1.54,1.13l-2.67,3.22c-0.37-0.31-0.73-0.59-1.1-0.83c-0.37-0.24-0.75-0.44-1.14-0.61
		c-0.39-0.17-0.82-0.29-1.28-0.38s-0.96-0.14-1.51-0.14c-0.77,0-1.49,0.16-2.16,0.48c-0.67,0.32-1.26,0.75-1.76,1.3
		s-0.9,1.18-1.18,1.91c-0.28,0.73-0.43,1.5-0.43,2.33v0.05c0,0.88,0.14,1.7,0.43,2.44c0.29,0.75,0.69,1.39,1.21,1.95
		s1.14,0.98,1.85,1.28c0.71,0.3,1.49,0.46,2.36,0.46c1.58,0,2.91-0.39,3.99-1.17v-2.77h-4.27v-3.66h8.37v8.37
		C520.59,492.26,519.41,492.98,518.04,493.58z"/>
	<path class="st22" d="M545.51,494.14l-1.76-4.32h-8.15l-1.76,4.32h-4.32l8.26-19.42h3.91l8.26,19.42H545.51z M539.67,479.82
		l-2.56,6.25h5.12L539.67,479.82z"/>
	<path class="st22" d="M567.17,478.77v15.37h-4.24v-15.37h-5.87v-3.91h15.98v3.91H567.17z"/>
	<path class="st22" d="M581.79,494.14v-19.28h14.52v3.77h-10.33v3.91h9.09v3.77h-9.09v4.05h10.47v3.77H581.79z"/>
	<path class="st22" d="M626.94,494.28h-3.69l-4.35-12.62l-4.35,12.62h-3.69l-6.58-19.42h4.54l3.99,13.06l4.32-13.11h3.64l4.32,13.11
		l3.99-13.06h4.43L626.94,494.28z"/>
	<path class="st22" d="M656.52,494.14l-1.76-4.32h-8.15l-1.76,4.32h-4.32l8.26-19.42h3.91l8.26,19.42H656.52z M650.68,479.82
		l-2.56,6.25h5.12L650.68,479.82z"/>
	<path class="st22" d="M679.11,486.46v7.69h-4.24v-7.6l-7.41-11.68h4.96l4.6,7.74l4.68-7.74h4.82L679.11,486.46z"/>
	<path class="st22" d="M712.68,478.69v4.16h9.2v3.83h-9.2v7.46h-4.24v-19.28h14.68v3.83H712.68z"/>
	<path class="st22" d="M750.89,488.37c-0.51,1.2-1.23,2.26-2.13,3.17c-0.91,0.91-1.99,1.63-3.25,2.15s-2.63,0.78-4.12,0.78
		c-1.49,0-2.86-0.26-4.1-0.78c-1.25-0.52-2.33-1.23-3.24-2.12c-0.91-0.89-1.62-1.94-2.12-3.14c-0.51-1.2-0.76-2.49-0.76-3.87v-0.05
		c0-1.38,0.26-2.67,0.77-3.87c0.51-1.2,1.23-2.26,2.13-3.17c0.91-0.91,1.99-1.63,3.25-2.15s2.63-0.79,4.12-0.79s2.86,0.26,4.1,0.79
		c1.25,0.52,2.33,1.23,3.24,2.12s1.62,1.94,2.12,3.14c0.5,1.2,0.76,2.49,0.76,3.87v0.06C751.66,485.88,751.4,487.17,750.89,488.37z
		 M747.23,484.5c0-0.83-0.14-1.61-0.43-2.34c-0.29-0.73-0.69-1.38-1.21-1.93s-1.14-0.99-1.86-1.31s-1.5-0.48-2.34-0.48
		c-0.86,0-1.65,0.16-2.35,0.47c-0.71,0.31-1.31,0.74-1.82,1.29s-0.9,1.19-1.18,1.91c-0.28,0.73-0.43,1.5-0.43,2.33v0.06
		c0,0.83,0.14,1.61,0.43,2.34c0.29,0.74,0.69,1.38,1.21,1.93s1.14,0.99,1.85,1.31s1.49,0.48,2.36,0.48c0.84,0,1.63-0.16,2.34-0.47
		c0.72-0.31,1.33-0.74,1.83-1.29s0.9-1.19,1.18-1.91c0.28-0.73,0.43-1.5,0.43-2.33V484.5z"/>
	<path class="st22" d="M772.65,494.14l-4.13-6.17h-3.33v6.17h-4.24v-19.28h8.81c2.3,0,4.08,0.56,5.36,1.68s1.92,2.68,1.92,4.68v0.06
		c0,1.56-0.38,2.83-1.14,3.81c-0.76,0.98-1.76,1.7-2.99,2.16l4.71,6.89H772.65z M772.73,481.45c0-0.92-0.29-1.61-0.88-2.07
		c-0.59-0.46-1.41-0.69-2.45-0.69h-4.21v5.54h4.3c1.05,0,1.85-0.25,2.41-0.74s0.84-1.16,0.84-1.98V481.45z"/>
	<path class="st22" d="M800.33,494.14v-19.28h4.24v19.28H800.33z"/>
	<path class="st22" d="M828.43,494.14l-9.34-12.26v12.26h-4.19v-19.28h3.91l9.03,11.87v-11.87h4.19v19.28H828.43z"/>
	<path class="st22" d="M857.57,492.46c-0.53,0.42-1.12,0.79-1.75,1.09c-0.63,0.3-1.33,0.53-2.08,0.69c-0.75,0.16-1.6,0.23-2.53,0.23
		c-1.41,0-2.73-0.26-3.94-0.77c-1.21-0.51-2.26-1.22-3.14-2.11s-1.57-1.94-2.07-3.15c-0.5-1.21-0.74-2.51-0.74-3.88v-0.05
		c0-1.38,0.25-2.67,0.74-3.87c0.5-1.2,1.18-2.26,2.07-3.17s1.94-1.63,3.17-2.15c1.23-0.52,2.59-0.79,4.08-0.79
		c0.9,0,1.72,0.07,2.47,0.22c0.74,0.15,1.42,0.35,2.02,0.61c0.61,0.26,1.17,0.57,1.68,0.94c0.51,0.37,0.99,0.77,1.43,1.21l-2.7,3.11
		c-0.75-0.68-1.52-1.21-2.3-1.6c-0.78-0.39-1.66-0.58-2.63-0.58c-0.81,0-1.56,0.16-2.25,0.47s-1.28,0.74-1.78,1.29
		s-0.88,1.19-1.16,1.91s-0.41,1.5-0.41,2.33v0.06c0,0.83,0.14,1.61,0.41,2.34c0.28,0.74,0.66,1.38,1.14,1.93
		c0.49,0.55,1.07,0.99,1.76,1.31s1.45,0.48,2.27,0.48c1.1,0,2.03-0.2,2.8-0.61c0.76-0.4,1.52-0.96,2.27-1.65l2.7,2.73
		C858.62,491.56,858.1,492.04,857.57,492.46z"/>
	<path class="st22" d="M886.88,488.37c-0.51,1.2-1.23,2.26-2.13,3.17c-0.91,0.91-1.99,1.63-3.25,2.15s-2.63,0.78-4.12,0.78
		c-1.49,0-2.86-0.26-4.1-0.78c-1.25-0.52-2.33-1.23-3.24-2.12c-0.91-0.89-1.62-1.94-2.12-3.14c-0.51-1.2-0.76-2.49-0.76-3.87v-0.05
		c0-1.38,0.26-2.67,0.77-3.87c0.51-1.2,1.23-2.26,2.13-3.17c0.91-0.91,1.99-1.63,3.25-2.15s2.63-0.79,4.12-0.79s2.86,0.26,4.1,0.79
		c1.25,0.52,2.33,1.23,3.24,2.12s1.62,1.94,2.12,3.14c0.5,1.2,0.76,2.49,0.76,3.87v0.06C887.65,485.88,887.39,487.17,886.88,488.37z
		 M883.21,484.5c0-0.83-0.14-1.61-0.43-2.34c-0.29-0.73-0.69-1.38-1.21-1.93s-1.14-0.99-1.86-1.31s-1.5-0.48-2.34-0.48
		c-0.86,0-1.65,0.16-2.35,0.47c-0.71,0.31-1.31,0.74-1.82,1.29s-0.9,1.19-1.18,1.91c-0.28,0.73-0.43,1.5-0.43,2.33v0.06
		c0,0.83,0.14,1.61,0.43,2.34c0.29,0.74,0.69,1.38,1.21,1.93s1.14,0.99,1.85,1.31s1.49,0.48,2.36,0.48c0.84,0,1.63-0.16,2.34-0.47
		c0.72-0.31,1.33-0.74,1.83-1.29s0.9-1.19,1.18-1.91c0.28-0.73,0.43-1.5,0.43-2.33V484.5z"/>
	<path class="st22" d="M912.03,494.14v-12.59l-5.43,8.24h-0.11l-5.37-8.15v12.51h-4.19v-19.28h4.57l5.07,8.15l5.07-8.15h4.57v19.28
		H912.03z"/>
	<path class="st22" d="M926.35,494.14v-19.28h14.52v3.77h-10.33v3.91h9.09v3.77h-9.09v4.05H941v3.77H926.35z"/>
</g>
<g>
	<g>
		<path d="M160.68,622.09l7.64,18.38c1.72,4.13,5.89,6.68,10.35,6.32l19.84-1.59c9.96-0.8,15.12,11.62,7.53,18.12l-15.12,12.94
			c-3.4,2.91-4.53,7.67-2.82,11.8l7.64,18.38c3.84,9.23-6.38,17.97-14.91,12.76l-16.98-10.38c-3.81-2.33-8.69-1.94-12.09,0.97
			l-15.12,12.94c-7.59,6.5-19.07-0.51-16.74-10.23l4.62-19.36c1.04-4.35-0.84-8.87-4.65-11.2l-16.98-10.38
			c-8.53-5.21-5.4-18.29,4.56-19.09l19.84-1.58c4.46-0.36,8.17-3.54,9.21-7.89l4.62-19.36
			C143.44,613.93,156.84,612.86,160.68,622.09z"/>
	</g>
	<g>
		<path d="M198.02,625.01l-6.98,27.5c-1.25,4.94,0.82,10.12,5.12,12.83l24,15.13c9.63,6.07,5.86,20.92-5.5,21.67L186.35,704
			c-5.08,0.33-9.37,3.9-10.62,8.84l-6.98,27.5c-2.8,11.04-18.09,12.04-22.31,1.47l-10.52-26.35c-1.89-4.73-6.61-7.71-11.69-7.37
			l-28.31,1.86c-11.36,0.75-17.04-13.48-8.29-20.77l21.81-18.14c3.91-3.26,5.29-8.66,3.4-13.39l-10.52-26.35
			c-4.22-10.58,7.56-20.38,17.19-14.3l24,15.13c4.31,2.72,9.87,2.35,13.79-0.91l21.81-18.14
			C187.86,605.8,200.82,613.97,198.02,625.01z"/>
	</g>
	<g>
		<circle cx="152.91" cy="599.84" r="10.24"/>
	</g>
	<g>
		<circle cx="225.68" cy="647.88" r="10.24"/>
	</g>
	<g>
		<circle cx="111.23" cy="735.49" r="10.24"/>
	</g>
	<g>
		<circle cx="203.07" cy="731.25" r="10.24"/>
	</g>
	<g>
		<circle cx="83.68" cy="648.59" r="10.24"/>
	</g>
	<g>
		<circle cx="204.49" cy="594.9" r="15.9"/>
	</g>
	<g>
		<circle cx="158.56" cy="770.1" r="15.9"/>
	</g>
	<g>
		<circle cx="246.17" cy="696.63" r="15.9"/>
	</g>
	<g>
		<circle cx="93.57" cy="599.84" r="15.9"/>
	</g>
	<g>
		<circle cx="63.9" cy="707.93" r="15.9"/>
	</g>
</g>
<g>
	<g>
		<path d="M280.12,637.55h22.1v79.33h-22.1V637.55z"/>
	</g>
	<g>
		<path d="M312.65,637.55h34c20.06,0,32.98,10.31,32.98,27.88v0.23c0,18.7-14.39,28.56-34.11,28.56h-10.88v22.67h-21.99V637.55z
			 M345.06,676.98c7.82,0,12.58-4.08,12.58-10.31v-0.23c0-6.8-4.76-10.43-12.69-10.43h-10.31v20.97H345.06z"/>
	</g>
	<g>
		<path d="M404.33,636.98h21.19l33.77,79.9h-23.57l-5.78-14.17h-30.6l-5.67,14.17h-23.12L404.33,636.98z M423.6,685.6l-8.84-22.55
			l-8.95,22.55H423.6z"/>
	</g>
	<g>
		<path d="M473.35,687.18l-30.15-49.64h25.05l16.32,28.9l16.43-28.9h24.59l-30.14,49.3v30.03h-22.1V687.18z"/>
	</g>
	<g>
		<path d="M528.31,637.55h23.23l18.92,30.71l18.93-30.71h23.23v79.33h-21.87v-45.56l-20.29,31.05h-0.45l-20.17-30.83v45.33h-21.53
			V637.55z"/>
	</g>
	<g>
		<path d="M650.03,636.98h21.19l33.77,79.9h-23.57l-5.78-14.17h-30.6l-5.67,14.17h-23.12L650.03,636.98z M669.29,685.6l-8.84-22.55
			l-8.95,22.55H669.29z"/>
	</g>
	<g>
		<path d="M717.8,656.81H694v-19.27h69.58v19.27h-23.8v60.06H717.8V656.81z"/>
	</g>
	<g>
		<path d="M769.59,637.55h22.1v79.33h-22.1V637.55z"/>
	</g>
	<g>
		<path d="M799.39,677.44v-0.23c0-23.12,17.79-41.25,41.82-41.25c16.21,0,26.63,6.8,33.66,16.55l-16.55,12.81
			c-4.53-5.67-9.75-9.29-17.34-9.29c-11.11,0-18.93,9.41-18.93,20.97v0.23c0,11.9,7.82,21.19,18.93,21.19
			c8.27,0,13.15-3.85,17.91-9.63l16.55,11.79c-7.48,10.31-17.57,17.91-35.13,17.91C817.64,718.46,799.39,701.12,799.39,677.44z"/>
	</g>
	<g>
		<path d="M874.76,705.09L887,690.47c7.82,6.23,16.55,9.52,25.73,9.52c5.89,0,9.07-2.04,9.07-5.44v-0.23c0-3.29-2.61-5.1-13.37-7.59
			c-16.89-3.85-29.92-8.61-29.92-24.93v-0.23c0-14.73,11.67-25.39,30.71-25.39c13.49,0,24.03,3.63,32.64,10.54l-10.99,15.53
			c-7.25-5.1-15.19-7.82-22.21-7.82c-5.33,0-7.93,2.27-7.93,5.1v0.23c0,3.63,2.72,5.21,13.71,7.71
			c18.25,3.97,29.58,9.86,29.58,24.71v0.23c0,16.21-12.81,25.84-32.07,25.84C897.88,718.24,884.5,713.82,874.76,705.09z"/>
	</g>
</g>
<g>
	<path d="M292.62,737.46v7.69h-4.24v-7.6l-7.41-11.68h4.96l4.6,7.74l4.68-7.74h4.82L292.62,737.46z"/>
	<path d="M327.06,739.37c-0.51,1.2-1.23,2.26-2.13,3.17c-0.91,0.91-1.99,1.63-3.25,2.15c-1.26,0.52-2.63,0.78-4.12,0.78
		s-2.86-0.26-4.1-0.78c-1.25-0.52-2.33-1.23-3.24-2.12s-1.62-1.94-2.12-3.14c-0.51-1.2-0.76-2.49-0.76-3.87v-0.05
		c0-1.38,0.26-2.67,0.77-3.87s1.23-2.26,2.13-3.17c0.91-0.91,1.99-1.63,3.25-2.15s2.63-0.79,4.12-0.79c1.49,0,2.85,0.26,4.1,0.79
		c1.25,0.52,2.33,1.23,3.24,2.12c0.91,0.89,1.62,1.94,2.12,3.14c0.5,1.2,0.76,2.49,0.76,3.87v0.06
		C327.83,736.88,327.57,738.17,327.06,739.37z M323.39,735.5c0-0.83-0.14-1.61-0.43-2.34c-0.29-0.73-0.69-1.38-1.21-1.93
		s-1.14-0.99-1.86-1.31s-1.5-0.48-2.34-0.48c-0.86,0-1.65,0.16-2.35,0.47c-0.71,0.31-1.31,0.74-1.82,1.29s-0.9,1.19-1.18,1.91
		c-0.29,0.73-0.43,1.5-0.43,2.33v0.06c0,0.83,0.14,1.61,0.43,2.34c0.28,0.74,0.69,1.38,1.21,1.93s1.14,0.99,1.85,1.31
		s1.49,0.48,2.36,0.48c0.84,0,1.63-0.16,2.34-0.47c0.72-0.31,1.33-0.74,1.83-1.29c0.5-0.55,0.9-1.19,1.18-1.91
		c0.28-0.73,0.43-1.5,0.43-2.33V735.5z"/>
	<path d="M353.02,740.57c-0.4,1.08-0.96,1.99-1.69,2.71s-1.63,1.27-2.67,1.63c-1.05,0.36-2.21,0.54-3.5,0.54
		c-2.59,0-4.63-0.72-6.11-2.15c-1.49-1.43-2.23-3.57-2.23-6.42v-11.02h4.24v10.91c0,1.58,0.37,2.77,1.1,3.57
		c0.73,0.8,1.75,1.2,3.06,1.2c1.3,0,2.32-0.39,3.06-1.16c0.73-0.77,1.1-1.93,1.1-3.47v-11.04h4.24v10.88
		C353.61,738.21,353.41,739.49,353.02,740.57z"/>
	<path d="M375.15,745.14l-4.13-6.17h-3.33v6.17h-4.24v-19.28h8.81c2.29,0,4.08,0.56,5.36,1.68c1.28,1.12,1.91,2.68,1.91,4.68v0.06
		c0,1.56-0.38,2.83-1.14,3.81c-0.76,0.98-1.76,1.7-2.99,2.16l4.71,6.89H375.15z M375.23,732.45c0-0.92-0.29-1.61-0.88-2.07
		c-0.59-0.46-1.4-0.69-2.45-0.69h-4.21v5.54h4.3c1.05,0,1.85-0.25,2.41-0.74c0.56-0.5,0.84-1.16,0.84-1.98V732.45z"/>
	<path d="M416.16,745.14l-9.34-12.26v12.26h-4.19v-19.28h3.91l9.03,11.87v-11.87h4.19v19.28H416.16z"/>
	<path d="M429.91,745.14v-19.28h14.52v3.77h-10.33v3.91h9.09v3.77h-9.09v4.05h10.47v3.77H429.91z"/>
	<path d="M475.05,745.28h-3.69l-4.35-12.62l-4.35,12.62h-3.69l-6.58-19.42h4.54l3.99,13.06l4.32-13.11h3.64l4.32,13.11l3.99-13.06
		h4.43L475.05,745.28z"/>
	<path d="M518.04,744.58c-1.37,0.6-2.93,0.89-4.7,0.89c-1.51,0-2.88-0.25-4.12-0.74s-2.3-1.18-3.2-2.07
		c-0.89-0.88-1.58-1.93-2.08-3.14c-0.5-1.21-0.74-2.53-0.74-3.97v-0.05c0-1.38,0.25-2.67,0.76-3.87c0.5-1.2,1.21-2.26,2.11-3.17
		s1.96-1.63,3.2-2.15s2.58-0.79,4.05-0.79c0.86,0,1.65,0.06,2.35,0.18c0.71,0.12,1.36,0.29,1.97,0.51c0.61,0.22,1.17,0.5,1.71,0.83
		c0.53,0.33,1.05,0.71,1.54,1.13l-2.67,3.22c-0.37-0.31-0.73-0.59-1.1-0.83c-0.37-0.24-0.75-0.44-1.14-0.61
		c-0.39-0.17-0.82-0.29-1.28-0.38s-0.96-0.14-1.51-0.14c-0.77,0-1.49,0.16-2.16,0.48c-0.67,0.32-1.26,0.75-1.76,1.3
		s-0.9,1.18-1.18,1.91c-0.28,0.73-0.43,1.5-0.43,2.33v0.05c0,0.88,0.14,1.7,0.43,2.44c0.29,0.75,0.69,1.39,1.21,1.95
		s1.14,0.98,1.85,1.28c0.71,0.3,1.49,0.46,2.36,0.46c1.58,0,2.91-0.39,3.99-1.17v-2.77h-4.27v-3.66h8.37v8.37
		C520.59,743.26,519.41,743.98,518.04,744.58z"/>
	<path d="M545.51,745.14l-1.76-4.32h-8.15l-1.76,4.32h-4.32l8.26-19.42h3.91l8.26,19.42H545.51z M539.67,730.82l-2.56,6.25h5.12
		L539.67,730.82z"/>
	<path d="M567.17,729.77v15.37h-4.24v-15.37h-5.87v-3.91h15.98v3.91H567.17z"/>
	<path d="M581.79,745.14v-19.28h14.52v3.77h-10.33v3.91h9.09v3.77h-9.09v4.05h10.47v3.77H581.79z"/>
	<path d="M626.94,745.28h-3.69l-4.35-12.62l-4.35,12.62h-3.69l-6.58-19.42h4.54l3.99,13.06l4.32-13.11h3.64l4.32,13.11l3.99-13.06
		h4.43L626.94,745.28z"/>
	<path d="M656.52,745.14l-1.76-4.32h-8.15l-1.76,4.32h-4.32l8.26-19.42h3.91l8.26,19.42H656.52z M650.68,730.82l-2.56,6.25h5.12
		L650.68,730.82z"/>
	<path d="M679.11,737.46v7.69h-4.24v-7.6l-7.41-11.68h4.96l4.6,7.74l4.68-7.74h4.82L679.11,737.46z"/>
	<path d="M712.68,729.69v4.16h9.2v3.83h-9.2v7.46h-4.24v-19.28h14.68v3.83H712.68z"/>
	<path d="M750.89,739.37c-0.51,1.2-1.23,2.26-2.13,3.17c-0.91,0.91-1.99,1.63-3.25,2.15s-2.63,0.78-4.12,0.78
		c-1.49,0-2.86-0.26-4.1-0.78c-1.25-0.52-2.33-1.23-3.24-2.12c-0.91-0.89-1.62-1.94-2.12-3.14c-0.51-1.2-0.76-2.49-0.76-3.87v-0.05
		c0-1.38,0.26-2.67,0.77-3.87c0.51-1.2,1.23-2.26,2.13-3.17c0.91-0.91,1.99-1.63,3.25-2.15s2.63-0.79,4.12-0.79s2.86,0.26,4.1,0.79
		c1.25,0.52,2.33,1.23,3.24,2.12s1.62,1.94,2.12,3.14c0.5,1.2,0.76,2.49,0.76,3.87v0.06C751.66,736.88,751.4,738.17,750.89,739.37z
		 M747.23,735.5c0-0.83-0.14-1.61-0.43-2.34c-0.29-0.73-0.69-1.38-1.21-1.93s-1.14-0.99-1.86-1.31s-1.5-0.48-2.34-0.48
		c-0.86,0-1.65,0.16-2.35,0.47c-0.71,0.31-1.31,0.74-1.82,1.29s-0.9,1.19-1.18,1.91c-0.28,0.73-0.43,1.5-0.43,2.33v0.06
		c0,0.83,0.14,1.61,0.43,2.34c0.29,0.74,0.69,1.38,1.21,1.93s1.14,0.99,1.85,1.31s1.49,0.48,2.36,0.48c0.84,0,1.63-0.16,2.34-0.47
		c0.72-0.31,1.33-0.74,1.83-1.29s0.9-1.19,1.18-1.91c0.28-0.73,0.43-1.5,0.43-2.33V735.5z"/>
	<path d="M772.65,745.14l-4.13-6.17h-3.33v6.17h-4.24v-19.28h8.81c2.3,0,4.08,0.56,5.36,1.68s1.92,2.68,1.92,4.68v0.06
		c0,1.56-0.38,2.83-1.14,3.81c-0.76,0.98-1.76,1.7-2.99,2.16l4.71,6.89H772.65z M772.73,732.45c0-0.92-0.29-1.61-0.88-2.07
		c-0.59-0.46-1.41-0.69-2.45-0.69h-4.21v5.54h4.3c1.05,0,1.85-0.25,2.41-0.74s0.84-1.16,0.84-1.98V732.45z"/>
	<path d="M800.33,745.14v-19.28h4.24v19.28H800.33z"/>
	<path d="M828.43,745.14l-9.34-12.26v12.26h-4.19v-19.28h3.91l9.03,11.87v-11.87h4.19v19.28H828.43z"/>
	<path d="M857.57,743.46c-0.53,0.42-1.12,0.79-1.75,1.09c-0.63,0.3-1.33,0.53-2.08,0.69c-0.75,0.16-1.6,0.23-2.53,0.23
		c-1.41,0-2.73-0.26-3.94-0.77c-1.21-0.51-2.26-1.22-3.14-2.11s-1.57-1.94-2.07-3.15c-0.5-1.21-0.74-2.51-0.74-3.88v-0.05
		c0-1.38,0.25-2.67,0.74-3.87c0.5-1.2,1.18-2.26,2.07-3.17s1.94-1.63,3.17-2.15c1.23-0.52,2.59-0.79,4.08-0.79
		c0.9,0,1.72,0.07,2.47,0.22c0.74,0.15,1.42,0.35,2.02,0.61c0.61,0.26,1.17,0.57,1.68,0.94c0.51,0.37,0.99,0.77,1.43,1.21l-2.7,3.11
		c-0.75-0.68-1.52-1.21-2.3-1.6c-0.78-0.39-1.66-0.58-2.63-0.58c-0.81,0-1.56,0.16-2.25,0.47s-1.28,0.74-1.78,1.29
		s-0.88,1.19-1.16,1.91s-0.41,1.5-0.41,2.33v0.06c0,0.83,0.14,1.61,0.41,2.34c0.28,0.74,0.66,1.38,1.14,1.93
		c0.49,0.55,1.07,0.99,1.76,1.31s1.45,0.48,2.27,0.48c1.1,0,2.03-0.2,2.8-0.61c0.76-0.4,1.52-0.96,2.27-1.65l2.7,2.73
		C858.62,742.56,858.1,743.04,857.57,743.46z"/>
	<path d="M886.88,739.37c-0.51,1.2-1.23,2.26-2.13,3.17c-0.91,0.91-1.99,1.63-3.25,2.15s-2.63,0.78-4.12,0.78
		c-1.49,0-2.86-0.26-4.1-0.78c-1.25-0.52-2.33-1.23-3.24-2.12c-0.91-0.89-1.62-1.94-2.12-3.14c-0.51-1.2-0.76-2.49-0.76-3.87v-0.05
		c0-1.38,0.26-2.67,0.77-3.87c0.51-1.2,1.23-2.26,2.13-3.17c0.91-0.91,1.99-1.63,3.25-2.15s2.63-0.79,4.12-0.79s2.86,0.26,4.1,0.79
		c1.25,0.52,2.33,1.23,3.24,2.12s1.62,1.94,2.12,3.14c0.5,1.2,0.76,2.49,0.76,3.87v0.06C887.65,736.88,887.39,738.17,886.88,739.37z
		 M883.21,735.5c0-0.83-0.14-1.61-0.43-2.34c-0.29-0.73-0.69-1.38-1.21-1.93s-1.14-0.99-1.86-1.31s-1.5-0.48-2.34-0.48
		c-0.86,0-1.65,0.16-2.35,0.47c-0.71,0.31-1.31,0.74-1.82,1.29s-0.9,1.19-1.18,1.91c-0.28,0.73-0.43,1.5-0.43,2.33v0.06
		c0,0.83,0.14,1.61,0.43,2.34c0.29,0.74,0.69,1.38,1.21,1.93s1.14,0.99,1.85,1.31s1.49,0.48,2.36,0.48c0.84,0,1.63-0.16,2.34-0.47
		c0.72-0.31,1.33-0.74,1.83-1.29s0.9-1.19,1.18-1.91c0.28-0.73,0.43-1.5,0.43-2.33V735.5z"/>
	<path d="M912.03,745.14v-12.59l-5.43,8.24h-0.11l-5.37-8.15v12.51h-4.19v-19.28h4.57l5.07,8.15l5.07-8.15h4.57v19.28H912.03z"/>
	<path d="M926.35,745.14v-19.28h14.52v3.77h-10.33v3.91h9.09v3.77h-9.09v4.05H941v3.77H926.35z"/>
</g>
</svg>
